<svg width="565" height="97" viewBox="0 0 565 97" fill="none" xmlns="http://www.w3.org/2000/svg">
<rect x="101.952" y="3.02686" width="378.394" height="90.9863" rx="45.4932" fill="#0E0E0E" stroke="url(#paint0_linear_265_3159)" stroke-width="5"/>
<path d="M158.125 17.7936C164.045 17.7936 169.219 18.9402 173.645 21.2336C178.125 23.4736 181.565 26.7269 183.965 30.9936C186.419 35.2069 187.645 40.1402 187.645 45.7936C187.645 51.4469 186.419 56.3536 183.965 60.5136C181.565 64.6736 178.125 67.8736 173.645 70.1136C169.219 72.3002 164.045 73.3936 158.125 73.3936H139.965V17.7936H158.125ZM158.125 65.9536C164.632 65.9536 169.619 64.1936 173.085 60.6736C176.552 57.1536 178.285 52.1936 178.285 45.7936C178.285 39.3402 176.552 34.3002 173.085 30.6736C169.619 27.0469 164.632 25.2336 158.125 25.2336H149.085V65.9536H158.125ZM205.804 17.7936V73.3936H196.684V17.7936H205.804ZM258.018 33.7936C256.578 31.0202 254.578 28.9402 252.018 27.5536C249.458 26.1136 246.498 25.3936 243.138 25.3936C239.458 25.3936 236.178 26.2202 233.298 27.8736C230.418 29.5269 228.151 31.8736 226.498 34.9136C224.898 37.9536 224.098 41.4736 224.098 45.4736C224.098 49.4736 224.898 53.0202 226.498 56.1136C228.151 59.1536 230.418 61.5002 233.298 63.1536C236.178 64.8069 239.458 65.6336 243.138 65.6336C248.098 65.6336 252.124 64.2469 255.218 61.4736C258.311 58.7002 260.204 54.9402 260.898 50.1936H240.018V42.9136H270.658V50.0336C270.071 54.3536 268.524 58.3269 266.018 61.9536C263.564 65.5802 260.338 68.4869 256.338 70.6736C252.391 72.8069 247.991 73.8736 243.138 73.8736C237.911 73.8736 233.138 72.6736 228.818 70.2736C224.498 67.8202 221.058 64.4336 218.498 60.1136C215.991 55.7936 214.738 50.9136 214.738 45.4736C214.738 40.0336 215.991 35.1536 218.498 30.8336C221.058 26.5136 224.498 23.1536 228.818 20.7536C233.191 18.3002 237.964 17.0736 243.138 17.0736C249.058 17.0736 254.311 18.5402 258.898 21.4736C263.538 24.3536 266.898 28.4602 268.978 33.7936H258.018ZM288.773 17.7936V73.3936H279.653V17.7936H288.773ZM336.667 17.7936V25.2336H321.867V73.3936H312.747V25.2336H297.867V17.7936H336.667ZM379.423 62.0336H356.143L352.143 73.3936H342.623L362.543 17.7136H373.103L393.023 73.3936H383.423L379.423 62.0336ZM376.863 54.5936L367.823 28.7536L358.703 54.5936H376.863ZM410.804 66.0336H429.604V73.3936H401.684V17.7936H410.804V66.0336Z" fill="url(#paint1_linear_265_3159)"/>
<defs>
<linearGradient id="paint0_linear_265_3159" x1="99.4524" y1="48.52" x2="482.847" y2="48.52" gradientUnits="userSpaceOnUse">
<stop offset="0.07" stop-color="#391900"/>
<stop offset="0.2799" stop-color="#F58327"/>
<stop offset="0.525" stop-color="white"/>
<stop offset="0.8" stop-color="#F58327"/>
<stop offset="1" stop-color="#391900"/>
</linearGradient>
<linearGradient id="paint1_linear_265_3159" x1="151.37" y1="45.3297" x2="422.256" y2="45.3297" gradientUnits="userSpaceOnUse">
<stop offset="0.06" stop-color="#ECC5A5"/>
<stop offset="0.355" stop-color="#F58327"/>
<stop offset="1" stop-color="#8F4C17"/>
</linearGradient>
</defs>
</svg>
