<svg width="15" height="15" viewBox="0 0 15 15" fill="none" xmlns="http://www.w3.org/2000/svg">
<g id="SVG">
<g id="Group">
<path id="Vector" d="M9.90319 4.9245L9.90289 8.90168C9.90288 8.9846 9.86993 9.06413 9.8113 9.12277C9.75266 9.1814 9.67313 9.21435 9.59021 9.21436C9.50729 9.21436 9.42777 9.18143 9.36914 9.1228C9.31051 9.06417 9.27758 8.98465 9.27759 8.90173L9.27811 5.67883L4.95011 10.0068C4.89151 10.0654 4.81203 10.0984 4.72915 10.0984C4.64628 10.0984 4.5668 10.0655 4.5082 10.0069C4.44961 9.94827 4.41669 9.86879 4.4167 9.78591C4.4167 9.70304 4.44963 9.62356 4.50824 9.56495L8.83623 5.23696L5.61334 5.23748C5.53042 5.23749 5.4509 5.20455 5.39227 5.14592C5.33364 5.08729 5.3007 5.00777 5.30071 4.92485C5.30072 4.84193 5.33366 4.76241 5.3923 4.70377C5.45094 4.64513 5.53046 4.61219 5.61338 4.61218L9.59056 4.61188C9.63163 4.61185 9.67229 4.61992 9.71023 4.63562C9.74817 4.65132 9.78265 4.67435 9.81168 4.70338C9.84072 4.73242 9.86374 4.76689 9.87944 4.80483C9.89515 4.84277 9.90321 4.88344 9.90319 4.9245Z" fill="#0A0A0A"/>
</g>
</g>
</svg>
